<svg xmlns="http://www.w3.org/2000/svg" viewBox="0 0 282.85 153.02"><defs><style>.cls-1{fill:#e35b25;}.cls-2{fill:#fff;}</style></defs><g id="Layer_2" data-name="Layer 2"><g id="fox"><g id="fox-2" data-name="fox"><path id="bodu" class="cls-1" d="M264.11,24.4c6.65,6.1,4.72,21.77,15.33,22.49,7.21.49,2,10.29-6.72,10.67s-17-5.66-20.72.89-11.55,28.43-19.38,32-10.78,9.24-13.14,10.14,14.69,7.35,18.81,10.37-.91,16-4,19.32-5.17,9.8-5,14.58-6.11-1.33-8.47-6,9.11-16.35,9-18.74-12.82-1-21.75-4.66-.68,21.32-2.11,25.37,14.6,5.33,10.75,8.58-21,6.9-20.82-1.4c.31-11.55-6.66-43.71-7-50.88S152,89.22,146.47,91.78s-34.9,23.77-41.17,26.44,2.48,20.64,6.57,22.86,8,1.25,12.95,4.24-21.37,4.11-24.63,2.65-9.65-20.34-9.65-20.34,5.1-11.39,3.3-16.11-4.9-8.83,4.87-16.7c5.83-4.7,3.15-19.56-9.74-3.84s-28.49,24.37-43.42,29.8-37.45,1.6-43.82,1.88,7.55-9.9-.41-9.56,37.46-19.82,20.86-16S68.63,75.22,79.67,60.25c4.56-6.18,15.83-3.07,28-16.37s77.82-.94,87.53-2.16,41.93-13,43.25-19.41S251.93,1,255.08.05s-4.23,13,3.57,8.62,8-.34,3.49,7S264.11,24.4,264.11,24.4Z"/><path id="belly" class="cls-2" d="M244.36,59.48C234,68,238.17,68.89,235.63,73.54c-3.7,6.79-2.46,11.55-6.8,13.62,0,0,3.66.19,9.14-11.67C242.31,66.08,246.1,58.05,244.36,59.48Z"/></g></g></g></svg>