<svg xmlns="http://www.w3.org/2000/svg" viewBox="0 0 820.93 338.3"><defs><style>.cls-1,.cls-3{fill:#e35b25;}.cls-2{fill:#fff;}.cls-3{font-size:115px;font-family:BellMT, Bell MT;}.cls-4{letter-spacing:-0.03em;}.cls-5,.cls-8{fill:#383737;}.cls-6{fill:#272626;}.cls-7{letter-spacing:-0.06em;}.cls-8{letter-spacing:-0.03em;}.cls-10,.cls-9{fill:#5c5b5b;}.cls-10{font-size:48px;font-family:BasicSansLightSF, Basic Sans Light SF;letter-spacing:0.13em;}</style></defs><title>logo</title><g id="fox"><g id="fox-2" data-name="fox"><path id="bodu" class="cls-1" d="M351.48,104.86c8.09,7.94,5,27.53,18.3,28.89,9,.92,2.12,13-8.9,13.11s-21.11-7.83-26.05.24-15.71,35.21-25.69,39.32-13.93,11.15-16.92,12.18,18.12,9.85,23.17,13.81-1.82,20.06-5.79,24.11-6.9,12.08-6.85,18.1-7.61-1.94-10.38-7.93,12.13-20.15,12.1-23.15-16.05-1.86-27.12-6.77-1.76,26.74-3.71,31.77,18.1,7.3,13.13,11.23-26.7,7.77-26.08-2.64c.87-14.49-6.52-55.18-6.61-64.19s-46.2-11.42-53.18-8.44S156.06,212.88,148.08,216s2.24,26,7.28,29,10,1.91,16.09,5.87-27,4.25-31,2.29-11.26-26-11.26-26,6.88-14.1,4.82-20.09-5.78-11.3,6.83-20.77c7.52-5.65,4.78-24.43-12.08-5.24s-36.8,29.4-55.78,35.59-47.1.44-55.11.51,9.91-12.12-.11-12,47.88-23.31,26.87-19.2,59.26-25.53,73.75-43.86c6-7.57,20-3.19,35.9-19.37s97.77,2.1,110,1,53.21-14.52,55.14-22.56,17.79-26.21,21.79-27.25-5.86,16.08,4.11,11,10-.09,4.09,9S351.48,104.86,351.48,104.86Z"/><path id="belly" class="cls-2" d="M324.39,143.7c-13,10.7-7.78,11.82-11,17.67-4.66,8.52-3.1,14.51-8.55,17.11,0,0,4.6.24,11.48-14.66C321.81,152,326.56,141.9,324.39,143.7Z"/></g></g><g id="title"><text class="cls-3" transform="translate(401 161.34)"><tspan class="cls-4">R</tspan><tspan class="cls-5" x="74.35" y="0">ed</tspan><tspan class="cls-6" x="182.16" y="0"> </tspan><tspan class="cls-7" x="210.91" y="0">F</tspan><tspan class="cls-8" x="275.76" y="0">o</tspan><tspan class="cls-5" x="329.11" y="0">x</tspan></text></g><g id="seperator"><g id="seperator-2" data-name="seperator"><polygon class="cls-9" points="407.94 202.78 456.56 202.29 505.19 202.01 602.44 201.78 699.69 202.01 748.31 202.29 796.94 202.78 748.31 203.27 699.69 203.55 602.44 203.78 505.19 203.54 456.56 203.26 407.94 202.78"/></g></g><g id="subtitle"><text class="cls-10" transform="translate(410.93 263.9)">Medical Supplies</text></g></svg>