<svg xmlns="http://www.w3.org/2000/svg" viewBox="0 0 504.86 381.68"><defs><style>.cls-1,.cls-3{fill:#e35b25;}.cls-2{fill:#fff;}.cls-3{font-size:144.95px;font-family:BellMTStd-Regular, Bell MT Std;letter-spacing:-0.02em;}.cls-4,.cls-7,.cls-8{fill:#383737;}.cls-4,.cls-5{letter-spacing:0.01em;}.cls-5{fill:#282727;}.cls-6{letter-spacing:-0.05em;}.cls-7{letter-spacing:-0.01em;}.cls-8{letter-spacing:0.01em;}</style></defs><g id="Layer_2" data-name="Layer 2"><g id="fox"><g id="fox-2" data-name="fox"><path id="bodu" class="cls-1" d="M407.85,30.91c8.42,7.73,6,27.58,19.43,28.5,9.12.61,2.58,13-8.52,13.51S397.21,65.75,392.51,74s-14.63,36-24.55,40.49-13.66,11.71-16.64,12.85,18.6,9.31,23.82,13.13-1.15,20.28-5,24.49-6.54,12.41-6.28,18.47-7.74-1.69-10.74-7.63,11.54-20.72,11.41-23.75-16.23-1.32-27.55-5.89-.87,27-2.67,32.13,18.49,6.75,13.61,10.88-26.64,8.73-26.36-1.78c.38-14.64-8.45-55.38-8.83-64.46s-46.95-9.94-53.88-6.7-44.22,30.12-52.16,33.49,3.14,26.16,8.32,29,10.18,1.58,16.41,5.36-27.08,5.21-31.2,3.36S188,161.68,188,161.68s6.46-14.43,4.18-20.4-6.21-11.19,6.17-21.16c7.39-6,4-24.78-12.34-4.86S149.89,146.13,131,153s-47.44,2-55.51,2.38,9.57-12.55-.52-12.12,47.46-25.1,26.43-20.25,58.84-27.73,72.83-46.7c5.77-7.83,20.05-3.89,35.51-20.73s98.58-1.19,110.88-2.73,53.12-16.44,54.79-24.6,17-27,21-28.2S391.06,16.47,400.93,11s10.1-.44,4.43,8.91S407.85,30.91,407.85,30.91Z"/><path id="belly" class="cls-2" d="M382.84,75.35C369.77,86.14,375,87.27,371.77,93.17c-4.69,8.59-3.11,14.63-8.61,17.25,0,0,4.64.23,11.57-14.78C380.24,83.71,385,73.54,382.84,75.35Z"/></g></g><g id="title"><text class="cls-3" transform="translate(0 343.13)">R<tspan class="cls-4" x="95.52" y="0">ed</tspan><tspan class="cls-5" x="235.11" y="0"> </tspan><tspan class="cls-6" x="273.23" y="0">F</tspan><tspan class="cls-7" x="356.87" y="0">o</tspan><tspan class="cls-8" x="426.01" y="0">x</tspan></text></g></g></svg>